<svg width="200" height="150" viewBox="0 0 800 600" fill="none" xmlns="http://www.w3.org/2000/svg" data-reactroot="">
<path opacity="0.9" d="M398.504 51.5086H380.989C379.642 51.5086 378.43 50.4308 378.43 48.9488V31.4348C378.43 30.0875 379.507 28.875 380.989 28.875H398.504C399.851 28.875 401.063 29.9528 401.063 31.4348V48.9488C401.063 50.2961 399.851 51.5086 398.504 51.5086Z" fill="#C4B6FF"></path>
<path opacity="0.87" d="M683.046 296.168L719.69 317.319C728.986 322.708 728.986 331.331 719.825 336.72L295.58 583.129C286.419 588.518 271.33 588.518 262.169 583.129L51.461 461.474C42.165 456.085 42.165 447.462 51.3262 442.073L475.436 195.664C484.598 190.275 499.687 190.275 508.848 195.664L545.493 216.815L683.046 296.168ZM723.058 315.298L512.351 193.643C501.169 187.176 483.116 187.176 472.068 193.643L402.955 233.791L307.705 289.162L305.954 290.105L210.839 345.477L47.8234 440.187C36.7761 446.654 36.7761 457.028 47.9582 463.495L258.666 585.15C269.848 591.617 287.901 591.617 298.948 585.15L569.069 428.197L664.319 372.826L723.058 338.606C734.241 332.274 734.106 321.765 723.058 315.298Z" fill="#C4B6FF"></path>
<path d="M737.874 259.794C737.874 259.954 737.874 260.114 737.846 260.275C737.806 260.498 737.744 260.723 737.672 260.939C737.6 261.154 737.547 261.381 737.49 261.6C737.448 261.762 737.416 261.923 737.335 262.084C737.201 262.353 737.201 262.488 737.066 262.757C736.981 262.926 736.897 263.095 736.812 263.264C736.713 263.464 736.583 263.649 736.46 263.835C736.336 264.021 736.21 264.209 736.09 264.397C735.95 264.62 735.767 264.865 735.584 265.048C735.449 265.183 735.314 265.452 735.18 265.587C734.776 265.991 734.506 266.395 734.102 266.799C733.967 266.934 733.832 267.069 733.698 267.203C733.552 267.349 733.407 267.455 733.261 267.564C733.004 267.758 732.743 267.953 732.485 268.146C732.228 268.34 731.966 268.536 731.691 268.704C731.496 268.822 731.294 268.933 731.138 269.09C730.869 269.359 730.464 269.494 730.06 269.763L724.189 273.194C721.477 274.778 718.07 272.822 718.07 269.682V258.851C718.07 257.773 717.396 256.83 716.049 256.021L499.817 131.132C499.567 131.007 499.201 130.766 498.934 130.624C498.895 130.604 498.851 130.594 498.807 130.594C498.763 130.594 498.719 130.583 498.679 130.564C498.498 130.481 498.376 130.457 498.212 130.39C498.114 130.351 498.01 130.332 497.907 130.316C497.861 130.309 497.815 130.295 497.769 130.271C497.693 130.23 497.527 130.189 497.527 130.189H497.392C497.123 130.189 496.988 130.055 496.719 130.055C496.584 130.055 496.584 130.055 496.449 130.055H496.315C496.18 130.055 496.18 130.055 496.045 130.055C495.776 130.055 495.641 130.055 495.372 130.055C495.237 130.055 495.237 130.055 495.102 130.055H494.967C494.833 130.055 494.698 130.055 494.698 130.055C494.429 130.055 494.159 130.055 493.89 130.055C493.89 130.055 493.89 130.055 493.755 130.055H493.62C493.447 130.055 493.33 130.055 493.197 130.09C493.025 130.136 492.854 130.189 492.677 130.189C492.408 130.189 492.273 130.324 492.004 130.324C491.887 130.324 491.771 130.324 491.655 130.41C491.617 130.439 491.608 130.452 491.562 130.464C491.483 130.486 491.409 130.607 491.33 130.631C490.924 130.753 490.595 130.944 490.276 131.074C490.172 131.116 490.068 131.161 489.971 131.217L55.0647 383.948C55.0359 383.965 54.8952 384.009 54.8619 384.009C54.8532 384.009 54.8218 384.012 54.8155 384.018C54.684 384.144 54.5525 384.147 54.4211 384.278C54.2863 384.413 54.0169 384.548 53.8822 384.682C53.7622 384.802 53.6422 384.922 53.5223 385.042C53.4939 385.071 53.4827 385.075 53.4746 385.114C53.4577 385.196 53.3599 385.275 53.2956 385.328C53.2648 385.354 53.1926 385.372 53.1643 385.4L53.0738 385.491C52.9391 385.625 52.9391 385.76 52.9391 385.895C52.9391 385.895 52.9391 385.895 52.9391 386.03C52.9391 386.232 52.8044 386.413 52.8044 386.616C52.8044 386.645 52.8044 386.674 52.8044 386.703V397.429C52.8044 400.563 49.4092 402.519 46.6976 400.948L40.9487 397.616C35.6945 394.517 33 390.61 33 386.569L33 419.037C33 423.079 35.5597 426.986 40.9487 430.084L257.18 554.973C257.854 555.377 258.527 555.647 259.201 556.051C259.367 556.134 259.482 556.166 259.608 556.209C259.79 556.272 259.968 556.348 260.143 556.427C260.439 556.559 260.735 556.732 261.031 556.84C261.068 556.853 261.107 556.859 261.147 556.859C261.196 556.859 261.245 556.869 261.291 556.889C262.185 557.266 263.08 557.525 263.974 557.78C264.025 557.795 264.079 557.799 264.132 557.804C264.282 557.82 264.408 557.93 264.554 557.972C264.649 557.999 264.735 558.035 264.837 558.056C264.94 558.077 265.046 558.085 265.148 558.11C265.496 558.197 265.845 558.284 266.194 558.372C266.471 558.441 266.729 558.611 267.015 558.611C267.025 558.611 267.036 558.611 267.045 558.611C267.482 558.628 267.902 558.814 268.335 558.876C268.387 558.884 268.439 558.891 268.491 558.899C268.857 558.953 269.206 559.15 269.575 559.15C270.032 559.15 270.487 559.29 270.94 559.354C271.17 559.387 271.399 559.419 271.596 559.419C271.653 559.419 271.705 559.419 271.753 559.42C272.107 559.43 272.454 559.554 272.808 559.554C273.017 559.554 273.263 559.554 273.507 559.572C273.943 559.606 274.378 559.688 274.815 559.688C274.82 559.688 274.824 559.688 274.829 559.688C274.964 559.688 275.233 559.688 275.368 559.688C275.907 559.688 276.311 559.688 276.85 559.688C277.119 559.688 277.389 559.688 277.523 559.688C277.658 559.688 277.793 559.688 277.928 559.688C278.467 559.688 279.14 559.554 279.679 559.554C279.948 559.554 280.218 559.554 280.353 559.554C280.487 559.554 280.487 559.554 280.622 559.554C281.7 559.419 282.643 559.284 283.721 559.15H283.855C283.961 559.15 284.067 559.129 284.172 559.104C284.496 559.027 284.826 558.969 285.155 558.917C285.479 558.866 285.782 558.836 286.146 558.745C286.55 558.611 286.819 558.611 287.224 558.476C287.6 558.35 288.094 558.225 288.486 558.099C288.542 558.081 288.6 558.077 288.659 558.069C288.803 558.05 288.921 557.925 289.056 557.871C289.1 557.853 289.148 557.836 289.203 557.823C289.317 557.796 289.435 557.78 289.544 557.737C290.182 557.489 290.915 557.242 291.535 556.994C292.04 556.741 292.606 556.591 293.118 556.352C293.718 556.072 294.343 555.792 294.903 555.512L729.894 302.732C730.003 302.669 730.18 302.62 730.28 302.544C730.34 302.497 730.365 302.484 730.432 302.447C730.519 302.397 730.593 302.348 730.667 302.299C730.883 302.154 731.094 301.997 731.314 301.858C731.394 301.808 731.475 301.76 731.556 301.711C731.831 301.544 732.093 301.347 732.35 301.154C732.608 300.96 732.869 300.765 733.127 300.572C733.272 300.462 733.418 300.356 733.563 300.211L733.698 300.076C733.832 299.941 733.832 299.941 733.967 299.807C734.269 299.504 734.572 299.202 734.818 298.9C734.978 298.703 735.135 298.504 735.314 298.325C735.458 298.181 735.534 297.977 735.646 297.808C735.803 297.574 735.927 297.307 736.123 297.112C736.236 296.999 736.254 296.886 736.336 296.773C736.369 296.729 736.383 296.712 736.401 296.66C736.426 296.586 736.549 296.529 736.584 296.459C736.672 296.283 736.759 296.108 736.847 295.933C736.903 295.822 736.984 295.724 737.038 295.611C737.078 295.526 737.107 295.426 737.171 295.287C737.19 295.246 737.201 295.203 737.201 295.159C737.201 295.114 737.211 295.071 737.229 295.03C737.278 294.916 737.307 294.801 737.335 294.687C737.403 294.415 737.507 294.142 737.582 293.872C737.596 293.823 737.605 293.779 737.605 293.744V293.609C737.605 293.34 737.739 293.07 737.739 292.801C737.739 292.666 737.739 292.397 737.739 292.262C737.739 292.127 737.739 292.127 737.739 291.993L737.874 259.794C737.874 259.255 737.874 259.524 737.874 259.794ZM292.478 523.987C292.455 523.998 292.432 524.009 292.409 524.021C291.946 524.251 291.423 524.357 290.941 524.545C290.577 524.687 290.199 524.829 289.788 524.971C289.606 525.034 289.429 525.113 289.243 525.165C289.154 525.189 289.065 525.209 288.976 525.234C288.791 525.285 288.614 525.365 288.43 525.421C288.077 525.526 287.676 525.632 287.358 525.738C286.954 525.873 286.685 525.873 286.28 526.008C285.979 526.083 285.719 526.158 285.454 526.21C285.025 526.294 284.586 526.344 284.158 526.432C284.13 526.438 284.102 526.444 284.074 526.45C283.836 526.503 283.599 526.564 283.358 526.597C282.506 526.715 281.564 526.833 280.622 526.951C279.991 526.951 279.35 527.092 278.722 527.162C278.446 527.192 278.173 527.22 277.928 527.22C277.523 527.22 277.119 527.22 276.715 527.22C276.176 527.22 275.772 527.22 275.233 527.22C274.829 527.22 274.425 527.22 274.021 527.22C273.798 527.22 273.534 527.22 273.275 527.197C272.87 527.162 272.472 527.102 272.067 527.068C271.663 527.035 271.253 526.949 270.851 526.892C270.594 526.856 270.334 526.816 270.114 526.816C269.875 526.816 269.637 526.769 269.399 526.731C269.071 526.678 268.739 526.635 268.41 526.583C268.086 526.532 267.783 526.503 267.419 526.412C267.015 526.277 266.746 526.277 266.341 526.142C265.947 526.044 265.552 525.945 265.158 525.846C264.87 525.774 264.589 525.671 264.298 525.612C264.246 525.602 264.193 525.592 264.142 525.581C263.896 525.528 263.659 525.435 263.42 525.359C262.597 525.098 261.775 524.761 260.952 524.526C260.633 524.419 260.23 524.229 259.876 524.087C259.697 524.016 259.52 523.938 259.339 523.876C259.212 523.832 259.097 523.8 258.932 523.717C258.258 523.448 257.584 523.044 256.911 522.639L69.7978 414.599C67.0908 413.036 67.0854 409.131 69.7881 407.56L489.848 163.466C490.091 163.304 490.383 163.191 490.664 163.097C491.015 162.98 491.365 162.793 491.734 162.793C492.004 162.793 492.138 162.658 492.408 162.658C492.677 162.658 492.947 162.523 493.216 162.523H493.351C493.755 162.523 494.159 162.523 494.563 162.523H494.698C495.102 162.523 495.506 162.523 495.911 162.523H496.045C496.449 162.523 496.854 162.658 497.123 162.658C497.3 162.658 497.475 162.703 497.647 162.746C497.851 162.796 498.079 162.823 498.263 162.895C498.311 162.914 498.363 162.927 498.415 162.927C498.452 162.927 498.488 162.933 498.522 162.945C498.898 163.074 499.161 163.208 499.548 163.466L700.942 279.726C703.649 281.288 703.655 285.193 700.953 286.764L295.038 522.774C294.229 523.178 293.421 523.582 292.478 523.987Z" fill="#7D55FF"></path>
<path opacity="0.94" d="M730.064 247.936L513.833 123.047C503.324 116.984 486.349 116.984 475.976 123.047L40.8182 376.058C30.4445 382.121 30.4445 391.955 40.9529 398.018L257.184 522.907C267.693 528.969 284.533 528.969 295.042 522.907L730.199 270.03C740.573 263.833 740.438 253.998 730.064 247.936ZM716.188 261.812L281.03 514.689C278.336 516.305 273.89 516.305 271.196 514.689L54.9642 389.8C52.2697 388.183 52.135 385.623 54.9642 384.007L490.122 131.13C492.816 129.514 497.262 129.514 499.956 131.13L716.053 256.019C718.882 257.636 718.882 260.196 716.188 261.812Z" fill="#B5CDFB"></path>
<path opacity="0.82" d="M720.9 248.744L510.192 127.088C499.01 120.622 480.957 120.622 469.91 127.088L400.932 167.101L305.682 222.473L303.931 223.416L208.681 278.787L45.8 373.498C34.7527 379.965 34.7527 390.338 45.9347 396.805L256.643 518.595C267.825 525.062 285.878 525.062 296.925 518.595L567.046 361.642L662.295 306.271L721.035 272.051C732.217 265.584 732.082 255.211 720.9 248.744Z" fill="#C4B6FF"></path>
<g filter="url(#filter0_d)">
<path d="M663.37 306.81L662.293 306.137L567.043 361.508L568.121 362.182C570.95 363.798 575.665 363.798 578.494 362.182L663.37 312.873C666.334 311.256 666.2 308.562 663.37 306.81Z" fill="#7D55FF"></path>
</g>
<path d="M400.932 167.101L400.258 166.697C397.429 165.08 392.714 165.08 389.885 166.697L305.009 216.006C302.179 217.622 302.179 220.317 305.009 222.068L305.682 222.472L400.932 167.101Z" fill="#7D55FF"></path>
<path d="M303.932 223.55L303.258 223.146C300.429 221.529 295.714 221.529 292.885 223.146L208.009 272.455C205.179 274.072 205.179 276.766 208.009 278.518L208.682 278.922L303.932 223.55Z" fill="#7D55FF"></path>
<path d="M677.518 231.769C679.1 230.796 679.067 228.486 677.458 227.558L546.971 152.282C544.803 151.031 542.133 151.031 539.965 152.282C536.058 154.572 536.058 158.344 539.965 160.635L663.103 231.769C667.145 234.059 673.611 234.059 677.518 231.769Z" fill="#B5CDFB"></path>
<path d="M681.022 229.613L717.667 250.765C726.963 256.154 726.963 264.776 717.802 270.165L293.557 516.574C284.396 521.963 269.307 521.963 260.145 516.574L49.3028 394.919C40.0069 389.53 40.0069 380.908 49.1681 375.519L473.278 129.109C482.439 123.72 497.528 123.72 506.69 129.109L543.335 150.261L681.022 229.613ZM720.9 248.744L510.192 127.088C499.01 120.622 480.957 120.622 469.91 127.088L400.932 167.101L305.682 222.473L303.931 223.416L208.681 278.787L45.8 373.498C34.7527 379.965 34.7527 390.338 45.9347 396.805L256.643 518.595C267.825 525.062 285.878 525.062 296.925 518.595L567.046 361.642L662.295 306.271L721.035 272.051C732.217 265.584 732.082 255.211 720.9 248.744Z" fill="#C4B6FF"></path>
<path opacity="0.8" d="M498.606 175.32L460.884 153.494C458.189 152.012 453.878 152.012 451.318 153.494L446.603 156.189C443.908 157.671 443.908 160.23 446.603 161.712L484.326 183.538C487.02 185.02 491.331 185.02 494.026 183.538L498.741 180.843C501.301 179.361 501.301 176.801 498.606 175.32Z" fill="#7D55FF"></path>
<path opacity="0.8" d="M616.694 243.347L578.971 221.522C576.277 220.04 571.966 220.04 569.271 221.522L564.556 224.216C561.862 225.698 561.862 228.258 564.556 229.74L602.279 251.565C604.973 253.047 609.284 253.047 611.979 251.565L616.694 248.871C619.389 247.389 619.389 244.829 616.694 243.347Z" fill="#7D55FF"></path>
<path opacity="0.8" d="M557.618 209.273L519.895 187.447C517.201 185.965 512.89 185.965 510.33 187.447L505.615 190.142C502.92 191.624 502.92 194.184 505.615 195.666L543.337 217.491C546.032 218.973 550.343 218.973 553.037 217.491L557.753 214.796C560.312 213.314 560.312 210.889 557.618 209.273Z" fill="#7D55FF"></path>
<path opacity="0.8" d="M675.501 277.441L637.778 255.615C635.084 254.133 630.772 254.133 628.213 255.615L623.497 258.31C620.803 259.792 620.803 262.352 623.497 263.834L661.22 285.659C663.915 287.141 668.226 287.141 670.92 285.659L675.635 282.964C678.195 281.482 678.195 278.923 675.501 277.441Z" fill="#7D55FF"></path>
<path d="M655.693 294.549L431.243 165.08C430.3 164.541 428.818 164.541 427.875 165.08C426.932 165.619 426.932 166.562 427.875 167.101L652.19 296.57C653.133 297.109 654.615 297.109 655.558 296.57C656.636 296.031 656.636 295.088 655.693 294.549Z" fill="#B5CDFB"></path>
<path d="M601.686 323.461C602.809 322.832 602.82 321.219 601.705 320.575L493.015 257.739C492.474 257.426 491.807 257.426 491.266 257.738C490.099 258.411 490.099 260.096 491.266 260.769L600.046 323.451C600.552 323.743 601.175 323.746 601.686 323.461Z" fill="#7D55FF"></path>
<path d="M594.994 327.442C596.117 326.768 596.103 325.137 594.969 324.482L486.146 261.644C485.606 261.332 484.939 261.338 484.404 261.659C483.282 262.332 483.295 263.964 484.429 264.618L593.252 327.456C593.792 327.768 594.459 327.763 594.994 327.442Z" fill="#7D55FF"></path>
<path d="M588.12 331.348C589.242 330.675 589.228 329.044 588.095 328.39L479.349 265.652C478.842 265.359 478.219 265.355 477.708 265.641C476.585 266.27 476.574 267.882 477.688 268.526L586.378 331.363C586.918 331.675 587.585 331.669 588.12 331.348Z" fill="#7D55FF"></path>
<g opacity="0.8" filter="url(#filter1_d)">
<path fill-rule="evenodd" clip-rule="evenodd" d="M408.342 188.166C408.343 188.167 408.344 188.168 408.346 188.168L453.056 214.025C455.271 215.251 456.67 217.111 456.67 219.239C456.67 221.367 455.272 223.227 453.057 224.453L410.905 248.963C410.904 248.963 410.903 248.964 410.903 248.964C408.692 250.26 405.848 250.866 403.084 250.866C400.32 250.866 397.478 250.26 395.267 248.966C395.265 248.965 395.264 248.964 395.262 248.963L350.534 223.231C348.34 221.945 346.938 220.09 346.938 217.959C346.938 215.828 348.34 213.974 350.534 212.688L350.538 212.686L392.702 188.168C392.703 188.168 392.704 188.168 392.704 188.167C394.915 186.872 397.759 186.266 400.524 186.266C403.288 186.266 406.131 186.871 408.342 188.166ZM400.524 188.96C398.103 188.96 395.76 189.499 394.065 190.493L394.061 190.495L351.896 215.013C351.896 215.013 351.895 215.013 351.894 215.014C350.182 216.018 349.632 217.127 349.632 217.959C349.632 218.792 350.182 219.9 351.892 220.904C351.893 220.904 351.895 220.905 351.896 220.906L396.625 246.638C398.32 247.632 400.662 248.171 403.084 248.171C405.505 248.171 407.847 247.632 409.543 246.638L409.547 246.636L451.728 222.109L451.742 222.101C453.426 221.172 453.975 220.071 453.975 219.239C453.975 218.407 453.426 217.307 451.742 216.377L451.73 216.371L406.99 190.497L406.983 190.493C405.287 189.499 402.945 188.96 400.524 188.96Z" fill="#7D55FF"></path>
</g>
<path d="M616.488 309.908L566.236 280.807C563.811 279.46 559.904 279.46 557.613 280.807L556.401 281.481C553.976 282.828 553.976 285.118 556.401 286.466L606.653 315.566C609.078 316.913 612.985 316.913 615.275 315.566L616.488 314.892C618.913 313.545 618.913 311.255 616.488 309.908Z" fill="#7D55FF"></path>
<path d="M570.008 336.855L552.763 326.885C550.338 325.538 546.431 325.538 544.141 326.885L542.928 327.559C540.503 328.906 540.503 331.197 542.928 332.544L560.173 342.513C562.598 343.861 566.505 343.861 568.795 342.513L570.008 341.84C572.298 340.493 572.298 338.337 570.008 336.855Z" fill="#7D55FF"></path>
<g filter="url(#filter2_d)">
<path d="M519.382 371.299C520.549 370.671 520.573 369.007 519.426 368.344L410.646 305.531C410.139 305.238 409.516 305.234 409.005 305.52C407.882 306.149 407.871 307.761 408.985 308.405L517.733 371.275C518.241 371.568 518.865 371.578 519.382 371.299Z" fill="#7D55FF"></path>
</g>
<g filter="url(#filter3_d)">
<path d="M512.684 375.27C513.807 374.596 513.794 372.965 512.66 372.31L403.97 309.473C403.429 309.16 402.761 309.16 402.22 309.473C401.052 310.146 401.052 311.831 402.219 312.505L510.941 375.285C511.482 375.597 512.149 375.591 512.684 375.27Z" fill="#7D55FF"></path>
</g>
<g filter="url(#filter4_d)">
<path d="M505.818 379.191C506.986 378.517 506.986 376.832 505.819 376.158L397.096 313.379C396.556 313.067 395.889 313.072 395.354 313.393C394.231 314.067 394.244 315.698 395.378 316.354L504.067 379.19C504.609 379.503 505.277 379.503 505.818 379.191Z" fill="#7D55FF"></path>
</g>
<path opacity="0.87" d="M370.084 262.891L325.356 237.159C321.449 234.869 314.982 234.869 311.075 237.159L268.907 261.679C265 263.969 265 267.607 268.907 269.897L313.635 295.629C317.542 297.919 324.009 297.919 327.916 295.629L370.084 271.11C373.991 268.954 373.991 265.182 370.084 262.891Z" fill="#7D55FF"></path>
<path d="M534.175 357.736L483.923 328.635C481.498 327.288 477.591 327.288 475.301 328.635L474.088 329.309C471.663 330.656 471.663 332.947 474.088 334.294L524.34 363.394C526.765 364.741 530.672 364.741 532.963 363.394L534.175 362.721C536.6 361.373 536.6 359.083 534.175 357.736Z" fill="#7D55FF"></path>
<path d="M487.695 384.679L470.45 374.71C468.025 373.362 464.118 373.362 461.828 374.71L460.616 375.383C458.191 376.731 458.191 379.021 460.616 380.368L477.86 390.338C480.285 391.685 484.192 391.685 486.483 390.338L487.695 389.664C490.12 388.317 490.12 386.161 487.695 384.679Z" fill="#7D55FF"></path>
<path d="M437.187 419.115C438.31 418.486 438.32 416.874 437.206 416.231L328.324 353.359C327.818 353.067 327.195 353.062 326.684 353.348C325.562 353.977 325.551 355.589 326.665 356.232L435.547 419.104C436.054 419.396 436.677 419.4 437.187 419.115Z" fill="#7D55FF"></path>
<path d="M430.357 423.097C431.48 422.424 431.467 420.792 430.333 420.137L321.644 357.301C321.103 356.988 320.436 356.994 319.9 357.315C318.778 357.989 318.791 359.62 319.924 360.275L428.614 423.111C429.154 423.424 429.822 423.418 430.357 423.097Z" fill="#7D55FF"></path>
<path d="M423.623 427.004C424.746 426.331 424.732 424.699 423.598 424.045L314.775 361.207C314.235 360.895 313.568 360.9 313.033 361.221C311.91 361.895 311.924 363.526 313.058 364.181L421.881 427.019C422.421 427.331 423.088 427.325 423.623 427.004Z" fill="#7D55FF"></path>
<path opacity="0.87" d="M287.766 310.719L243.172 284.987C239.265 282.697 232.799 282.697 228.892 284.987L186.723 309.507C182.816 311.797 182.816 315.435 186.723 317.725L231.451 343.457C235.358 345.748 241.825 345.748 245.732 343.457L287.901 318.938C291.808 316.782 291.808 313.01 287.766 310.719Z" fill="#7D55FF"></path>
<path d="M451.855 405.564L401.603 376.464C399.178 375.116 395.271 375.116 392.981 376.464L391.768 377.137C389.343 378.484 389.343 380.775 391.768 382.122L442.02 411.222C444.445 412.57 448.352 412.57 450.642 411.222L451.855 410.549C454.28 409.201 454.28 406.911 451.855 405.564Z" fill="#7D55FF"></path>
<path d="M405.375 432.507L388.13 422.538C385.705 421.191 381.798 421.191 379.508 422.538L378.295 423.211C375.87 424.559 375.87 426.849 378.295 428.196L395.54 438.166C397.965 439.513 401.872 439.513 404.162 438.166L405.375 437.492C407.8 436.145 407.8 433.989 405.375 432.507Z" fill="#7D55FF"></path>
<path d="M354.913 466.88C356.035 466.207 356.021 464.576 354.887 463.923L246.007 401.183C245.501 400.891 244.878 400.887 244.368 401.172C243.245 401.801 243.235 403.414 244.349 404.057L353.172 466.895C353.712 467.207 354.379 467.201 354.913 466.88Z" fill="#7D55FF"></path>
<path d="M348.007 470.86C349.174 470.232 349.198 468.567 348.051 467.904L239.329 405.125C238.789 404.813 238.122 404.818 237.587 405.139C236.465 405.813 236.479 407.444 237.613 408.098L346.358 470.836C346.866 471.129 347.49 471.138 348.007 470.86Z" fill="#7D55FF"></path>
<path d="M341.305 474.829C342.428 474.155 342.415 472.523 341.281 471.868L232.592 409.032C232.05 408.719 231.382 408.719 230.841 409.031C229.673 409.705 229.673 411.389 230.84 412.063L339.563 474.843C340.103 475.155 340.77 475.15 341.305 474.829Z" fill="#7D55FF"></path>
<path opacity="0.87" d="M205.58 358.544L160.852 332.811C156.945 330.521 150.478 330.521 146.571 332.811L104.403 357.331C100.496 359.622 100.496 363.259 104.403 365.549L149.131 391.282C153.038 393.572 159.505 393.572 163.412 391.282L205.58 366.762C209.487 364.606 209.487 360.834 205.58 358.544Z" fill="#7D55FF"></path>
<path d="M369.675 453.392L319.423 424.292C316.998 422.944 313.091 422.944 310.801 424.292L309.588 424.965C307.163 426.313 307.163 428.603 309.588 429.95L359.84 459.05C362.265 460.398 366.172 460.398 368.463 459.05L369.675 458.377C371.965 456.895 371.965 454.739 369.675 453.392Z" fill="#7D55FF"></path>
<path d="M323.062 480.335L305.818 470.366C303.393 469.019 299.486 469.019 297.195 470.366L295.983 471.04C293.558 472.387 293.558 474.677 295.983 476.024L313.227 485.994C315.652 487.341 319.559 487.341 321.85 485.994L323.062 485.32C325.487 483.973 325.487 481.683 323.062 480.335Z" fill="#7D55FF"></path>
<path opacity="0.8" d="M219.193 469.691L130.411 418.496C128.524 417.418 125.561 417.418 123.809 418.496C121.923 419.574 121.923 421.325 123.809 422.403L212.592 473.598C214.478 474.676 217.442 474.676 219.193 473.598C220.945 472.52 220.945 470.769 219.193 469.691Z" fill="#B5CDFB"></path>
<g filter="url(#filter5_d)">
<path d="M392.178 201.188C386.115 201.726 380.322 203.343 375.607 206.038C364.02 212.774 364.02 223.821 375.741 230.557C380.322 233.117 385.845 234.734 391.773 235.407C387.597 234.464 383.69 233.117 380.457 231.231C368.197 224.091 368.197 212.639 380.322 205.499C383.825 203.613 387.866 202.131 392.178 201.188ZM381.265 220.453C379.513 219.51 379.513 217.893 381.265 216.95C384.902 214.929 390.696 214.929 394.333 216.95L405.38 223.282C409.018 225.303 409.018 228.806 405.38 230.827C403.764 231.77 400.935 231.77 399.318 230.827L381.265 220.453ZM402.282 218.567C398.779 216.546 398.779 213.313 402.282 211.292C405.785 209.271 411.443 209.271 414.946 211.292C418.449 213.313 418.449 216.546 414.946 218.567C411.443 220.588 405.785 220.588 402.282 218.567ZM417.91 206.172C413.464 203.613 407.94 201.996 402.147 201.322C394.737 201.322 387.193 203.074 381.534 206.307C370.083 212.908 370.083 223.821 381.669 230.423C387.193 233.656 394.468 235.273 401.743 235.407C407.671 234.868 413.464 233.252 418.044 230.557C429.765 223.821 429.631 212.908 417.91 206.172Z" fill="#B5CDFB"></path>
</g>
<path opacity="0.8" d="M402.279 201.321C409.958 201.321 417.503 202.938 423.431 206.306C435.017 212.907 435.017 223.82 423.566 230.421C417.638 233.924 409.824 235.541 402.01 235.406C394.735 235.271 387.46 233.655 381.936 230.421C370.35 223.82 370.35 212.907 381.801 206.306C387.325 203.073 394.735 201.321 402.279 201.321ZM424.643 205.498C415.886 200.378 403.222 199.031 392.175 201.186C387.864 201.995 383.822 203.477 380.319 205.498C368.194 212.638 368.194 224.089 380.454 231.23C383.822 233.116 387.729 234.598 391.771 235.406C402.953 237.831 415.886 236.349 424.778 231.23C436.903 224.089 436.903 212.638 424.643 205.498Z" fill="#7D55FF"></path>
<path d="M405.242 223.148L394.195 216.816C390.557 214.796 384.764 214.796 381.127 216.816C379.51 217.759 379.51 219.376 381.127 220.319L399.045 230.693C400.796 231.636 403.491 231.636 405.107 230.693C408.88 228.672 408.88 225.304 405.242 223.148Z" fill="#C4B6FF"></path>
<path d="M414.943 211.293C411.441 209.272 405.782 209.272 402.279 211.293C398.777 213.314 398.777 216.547 402.279 218.568C405.782 220.589 411.441 220.589 414.943 218.568C418.446 216.547 418.446 213.179 414.943 211.293Z" fill="#C4B6FF"></path>
<path d="M323.199 270.168L312.152 263.836C308.514 261.815 302.721 261.815 299.084 263.836C297.467 264.779 297.467 266.396 299.084 267.339L317.002 277.713C318.753 278.656 321.448 278.656 323.064 277.713C326.837 275.692 326.837 272.324 323.199 270.168Z" fill="#B5CDFB"></path>
<path d="M332.897 258.176C329.394 256.155 323.735 256.155 320.233 258.176C316.73 260.197 316.73 263.43 320.233 265.451C323.735 267.472 329.394 267.472 332.897 265.451C336.399 263.565 336.399 260.197 332.897 258.176Z" fill="#B5CDFB"></path>
<path d="M240.746 316.106L228.621 309.101C224.714 306.81 218.247 306.81 214.34 309.101C212.454 310.178 212.454 311.93 214.34 313.008L234.01 324.324C235.896 325.402 238.86 325.402 240.746 324.324C244.788 322.169 244.788 318.396 240.746 316.106Z" fill="#B5CDFB"></path>
<path d="M251.389 303.039C247.482 300.883 241.285 300.883 237.513 303.039C233.741 305.194 233.741 308.832 237.513 311.122C241.285 313.278 247.617 313.278 251.389 311.122C255.296 308.832 255.296 305.194 251.389 303.039Z" fill="#B5CDFB"></path>
<path d="M159.102 363.798L146.977 356.792C143.07 354.502 136.603 354.502 132.696 356.792C130.81 357.87 130.81 359.621 132.696 360.699L152.366 372.016C154.252 373.094 157.216 373.094 159.102 372.016C163.143 369.86 163.009 366.088 159.102 363.798Z" fill="#B5CDFB"></path>
<path d="M169.745 350.73C165.838 348.574 159.641 348.574 155.868 350.73C152.096 352.886 152.096 356.523 155.868 358.813C159.641 360.969 165.973 360.969 169.745 358.813C173.517 356.523 173.517 352.886 169.745 350.73Z" fill="#B5CDFB"></path>
<path fill-rule="evenodd" clip-rule="evenodd" d="M387.592 25.507C386.585 25.507 385.706 26.3858 385.706 27.3931V43.5599C385.706 44.5673 386.585 45.4461 387.592 45.4461H403.624C404.695 45.4461 405.511 44.6409 405.511 43.4252V27.3931C405.511 26.3858 404.632 25.507 403.624 25.507H387.592ZM383.012 27.3931C383.012 24.8976 385.097 22.8125 387.592 22.8125H403.624C406.12 22.8125 408.205 24.8976 408.205 27.3931V43.4252C408.205 45.9818 406.326 48.1405 403.624 48.1405H387.592C385.097 48.1405 383.012 46.0554 383.012 43.5599V27.3931Z" fill="#7D55FF"></path>
<path opacity="0.87" fill-rule="evenodd" clip-rule="evenodd" d="M759.433 234.601C757.127 234.601 755.257 236.471 755.257 238.777C755.257 241.084 757.127 242.954 759.433 242.954C761.74 242.954 763.61 241.084 763.61 238.777C763.61 236.471 761.74 234.601 759.433 234.601ZM752.562 238.777C752.562 234.982 755.639 231.906 759.433 231.906C763.228 231.906 766.304 234.982 766.304 238.777C766.304 242.572 763.228 245.648 759.433 245.648C755.639 245.648 752.562 242.572 752.562 238.777Z" fill="#C4B6FF"></path>
<path opacity="0.87" fill-rule="evenodd" clip-rule="evenodd" d="M759.433 279.46C757.127 279.46 755.257 281.33 755.257 283.637C755.257 285.943 757.127 287.813 759.433 287.813C761.74 287.813 763.61 285.943 763.61 283.637C763.61 281.33 761.74 279.46 759.433 279.46ZM752.562 283.637C752.562 279.842 755.639 276.766 759.433 276.766C763.228 276.766 766.304 279.842 766.304 283.637C766.304 287.431 763.228 290.507 759.433 290.507C755.639 290.507 752.562 287.431 752.562 283.637Z" fill="#C4B6FF"></path>
<path fill-rule="evenodd" clip-rule="evenodd" d="M353.808 572.116C351.502 572.116 349.632 573.986 349.632 576.293C349.632 578.599 351.502 580.469 353.808 580.469C356.115 580.469 357.985 578.599 357.985 576.293C357.985 573.986 356.115 572.116 353.808 572.116ZM346.938 576.293C346.938 572.498 350.014 569.422 353.808 569.422C357.603 569.422 360.679 572.498 360.679 576.293C360.679 580.087 357.603 583.164 353.808 583.164C350.014 583.164 346.938 580.087 346.938 576.293Z" fill="#C4B6FF"></path>
<path fill-rule="evenodd" clip-rule="evenodd" d="M382.004 555.511C379.697 555.511 377.827 557.381 377.827 559.687C377.827 561.994 379.697 563.864 382.004 563.864C384.31 563.864 386.18 561.994 386.18 559.687C386.18 557.381 384.31 555.511 382.004 555.511ZM375.133 559.687C375.133 555.893 378.209 552.816 382.004 552.816C385.798 552.816 388.875 555.893 388.875 559.687C388.875 563.482 385.798 566.558 382.004 566.558C378.209 566.558 375.133 563.482 375.133 559.687Z" fill="#C4B6FF"></path>
<path fill-rule="evenodd" clip-rule="evenodd" d="M410.187 538.905C407.881 538.905 406.011 540.775 406.011 543.082C406.011 545.388 407.881 547.258 410.187 547.258C412.494 547.258 414.364 545.388 414.364 543.082C414.364 540.775 412.494 538.905 410.187 538.905ZM403.316 543.082C403.316 539.287 406.393 536.211 410.187 536.211C413.982 536.211 417.058 539.287 417.058 543.082C417.058 546.877 413.982 549.953 410.187 549.953C406.393 549.953 403.316 546.877 403.316 543.082Z" fill="#C4B6FF"></path>
<path fill-rule="evenodd" clip-rule="evenodd" d="M384.359 91.1914C385.103 91.1914 385.706 91.7946 385.706 92.5386V160.709C385.706 161.453 385.103 162.056 384.359 162.056C383.615 162.056 383.012 161.453 383.012 160.709V92.5386C383.012 91.7946 383.615 91.1914 384.359 91.1914Z" fill="#B5CDFB"></path>
<path fill-rule="evenodd" clip-rule="evenodd" d="M395.675 63.2305C396.419 63.2305 397.023 63.8336 397.023 64.5777V68.6741C397.023 69.4182 396.419 70.0214 395.675 70.0214C394.931 70.0214 394.328 69.4182 394.328 68.6741V64.5777C394.328 63.8336 394.931 63.2305 395.675 63.2305ZM395.675 75.5198C396.419 75.5198 397.023 76.123 397.023 76.867V85.0599C397.023 85.804 396.419 86.4072 395.675 86.4072C394.931 86.4072 394.328 85.804 394.328 85.0599V76.867C394.328 76.123 394.931 75.5198 395.675 75.5198ZM395.675 91.9056C396.419 91.9056 397.023 92.5087 397.023 93.2528V101.446C397.023 102.19 396.419 102.793 395.675 102.793C394.931 102.793 394.328 102.19 394.328 101.446V93.2528C394.328 92.5087 394.931 91.9056 395.675 91.9056ZM395.675 108.291C396.419 108.291 397.023 108.895 397.023 109.639V117.831C397.023 118.576 396.419 119.179 395.675 119.179C394.931 119.179 394.328 118.576 394.328 117.831V109.639C394.328 108.895 394.931 108.291 395.675 108.291ZM395.675 124.677C396.419 124.677 397.023 125.28 397.023 126.024V134.217C397.023 134.961 396.419 135.564 395.675 135.564C394.931 135.564 394.328 134.961 394.328 134.217V126.024C394.328 125.28 394.931 124.677 395.675 124.677ZM395.675 141.063C396.419 141.063 397.023 141.666 397.023 142.41V150.603C397.023 151.347 396.419 151.95 395.675 151.95C394.931 151.95 394.328 151.347 394.328 150.603V142.41C394.328 141.666 394.931 141.063 395.675 141.063ZM395.675 157.449C396.419 157.449 397.023 158.052 397.023 158.796V166.989C397.023 167.733 396.419 168.336 395.675 168.336C394.931 168.336 394.328 167.733 394.328 166.989V158.796C394.328 158.052 394.931 157.449 395.675 157.449ZM395.675 173.834C396.419 173.834 397.023 174.438 397.023 175.182V183.375C397.023 184.119 396.419 184.722 395.675 184.722C394.931 184.722 394.328 184.119 394.328 183.375V175.182C394.328 174.438 394.931 173.834 395.675 173.834ZM395.675 190.22C396.419 190.22 397.023 190.823 397.023 191.567V195.664C397.023 196.408 396.419 197.011 395.675 197.011C394.931 197.011 394.328 196.408 394.328 195.664V191.567C394.328 190.823 394.931 190.22 395.675 190.22Z" fill="#B5CDFB"></path>
<path fill-rule="evenodd" clip-rule="evenodd" d="M417.059 39.2347C417.059 38.4859 417.666 37.8789 418.414 37.8789H503.694C504.443 37.8789 505.05 38.4859 505.05 39.2347C505.05 39.9834 504.443 40.5904 503.694 40.5904H418.414C417.666 40.5904 417.059 39.9834 417.059 39.2347Z" fill="#C4B6FF"></path>
<path opacity="0.9" d="M523.227 32.3633H511.641V43.9495H523.227V32.3633Z" fill="#FFF"></path>
<path fill-rule="evenodd" clip-rule="evenodd" d="M517.433 12.6945C515.127 12.6945 513.257 14.5643 513.257 16.8709C513.257 19.1775 515.127 21.0473 517.433 21.0473C519.74 21.0473 521.61 19.1775 521.61 16.8709C521.61 14.5643 519.74 12.6945 517.433 12.6945ZM510.562 16.8709C510.562 13.0762 513.639 10 517.433 10C521.228 10 524.304 13.0762 524.304 16.8709C524.304 20.6656 521.228 23.7418 517.433 23.7418C513.639 23.7418 510.562 20.6656 510.562 16.8709Z" fill="#C4B6FF"></path>
<path fill-rule="evenodd" clip-rule="evenodd" d="M517.433 57.4249C515.127 57.4249 513.257 59.2948 513.257 61.6014C513.257 63.908 515.127 65.7778 517.433 65.7778C519.74 65.7778 521.61 63.908 521.61 61.6014C521.61 59.2948 519.74 57.4249 517.433 57.4249ZM510.562 61.6014C510.562 57.8067 513.639 54.7305 517.433 54.7305C521.228 54.7305 524.304 57.8067 524.304 61.6014C524.304 65.3961 521.228 68.4723 517.433 68.4723C513.639 68.4723 510.562 65.3961 510.562 61.6014Z" fill="#C4B6FF"></path>
<defs>
<filter id="filter0_d" x="541.329" y="293.28" width="149.929" height="108.686" filterUnits="userSpaceOnUse" color-interpolation-filters="sRGB">
<feFlood flood-opacity="0" result="BackgroundImageFix"></feFlood>
<feColorMatrix in="SourceAlpha" type="matrix" values="0 0 0 0 0 0 0 0 0 0 0 0 0 0 0 0 0 0 127 0"></feColorMatrix>
<feOffset dy="12.8572"></feOffset>
<fegaussianblur stdDeviation="12.8572"></fegaussianblur>
<feColorMatrix type="matrix" values="0 0 0 0 0 0 0 0 0 0 0 0 0 0 0 0 0 0 0.15 0"></feColorMatrix>
<feBlend mode="normal" in2="BackgroundImageFix" result="effect1_dropShadow"></feBlend>
<feBlend mode="normal" in="SourceGraphic" in2="effect1_dropShadow" result="shape"></feBlend>
</filter>
<filter id="filter1_d" x="327.652" y="174.694" width="148.304" height="103.172" filterUnits="userSpaceOnUse" color-interpolation-filters="sRGB">
<feFlood flood-opacity="0" result="BackgroundImageFix"></feFlood>
<feColorMatrix in="SourceAlpha" type="matrix" values="0 0 0 0 0 0 0 0 0 0 0 0 0 0 0 0 0 0 127 0"></feColorMatrix>
<feOffset dy="7.71433"></feOffset>
<fegaussianblur stdDeviation="9.64291"></fegaussianblur>
<feColorMatrix type="matrix" values="0 0 0 0 0 0 0 0 0 0 0 0 0 0 0 0 0 0 0.15 0"></feColorMatrix>
<feBlend mode="normal" in2="BackgroundImageFix" result="effect1_dropShadow"></feBlend>
<feBlend mode="normal" in="SourceGraphic" in2="effect1_dropShadow" result="shape"></feBlend>
</filter>
<filter id="filter2_d" x="382.442" y="292.451" width="163.544" height="117.622" filterUnits="userSpaceOnUse" color-interpolation-filters="sRGB">
<feFlood flood-opacity="0" result="BackgroundImageFix"></feFlood>
<feColorMatrix in="SourceAlpha" type="matrix" values="0 0 0 0 0 0 0 0 0 0 0 0 0 0 0 0 0 0 127 0"></feColorMatrix>
<feOffset dy="12.8572"></feOffset>
<fegaussianblur stdDeviation="12.8572"></fegaussianblur>
<feColorMatrix type="matrix" values="0 0 0 0 0 0 0 0 0 0 0 0 0 0 0 0 0 0 0.15 0"></feColorMatrix>
<feBlend mode="normal" in2="BackgroundImageFix" result="effect1_dropShadow"></feBlend>
<feBlend mode="normal" in="SourceGraphic" in2="effect1_dropShadow" result="shape"></feBlend>
</filter>
<filter id="filter3_d" x="375.629" y="296.381" width="163.603" height="117.705" filterUnits="userSpaceOnUse" color-interpolation-filters="sRGB">
<feFlood flood-opacity="0" result="BackgroundImageFix"></feFlood>
<feColorMatrix in="SourceAlpha" type="matrix" values="0 0 0 0 0 0 0 0 0 0 0 0 0 0 0 0 0 0 127 0"></feColorMatrix>
<feOffset dy="12.8572"></feOffset>
<fegaussianblur stdDeviation="12.8572"></fegaussianblur>
<feColorMatrix type="matrix" values="0 0 0 0 0 0 0 0 0 0 0 0 0 0 0 0 0 0 0.15 0"></feColorMatrix>
<feBlend mode="normal" in2="BackgroundImageFix" result="effect1_dropShadow"></feBlend>
<feBlend mode="normal" in="SourceGraphic" in2="effect1_dropShadow" result="shape"></feBlend>
</filter>
<filter id="filter4_d" x="368.805" y="300.291" width="163.603" height="117.705" filterUnits="userSpaceOnUse" color-interpolation-filters="sRGB">
<feFlood flood-opacity="0" result="BackgroundImageFix"></feFlood>
<feColorMatrix in="SourceAlpha" type="matrix" values="0 0 0 0 0 0 0 0 0 0 0 0 0 0 0 0 0 0 127 0"></feColorMatrix>
<feOffset dy="12.8572"></feOffset>
<fegaussianblur stdDeviation="12.8572"></fegaussianblur>
<feColorMatrix type="matrix" values="0 0 0 0 0 0 0 0 0 0 0 0 0 0 0 0 0 0 0.15 0"></feColorMatrix>
<feBlend mode="normal" in2="BackgroundImageFix" result="effect1_dropShadow"></feBlend>
<feBlend mode="normal" in="SourceGraphic" in2="effect1_dropShadow" result="shape"></feBlend>
</filter>
<filter id="filter5_d" x="341.219" y="188.33" width="111.263" height="85.6486" filterUnits="userSpaceOnUse" color-interpolation-filters="sRGB">
<feFlood flood-opacity="0" result="BackgroundImageFix"></feFlood>
<feColorMatrix in="SourceAlpha" type="matrix" values="0 0 0 0 0 0 0 0 0 0 0 0 0 0 0 0 0 0 127 0"></feColorMatrix>
<feOffset dy="12.8572"></feOffset>
<fegaussianblur stdDeviation="12.8572"></fegaussianblur>
<feColorMatrix type="matrix" values="0 0 0 0 0 0 0 0 0 0 0 0 0 0 0 0 0 0 0.15 0"></feColorMatrix>
<feBlend mode="normal" in2="BackgroundImageFix" result="effect1_dropShadow"></feBlend>
<feBlend mode="normal" in="SourceGraphic" in2="effect1_dropShadow" result="shape"></feBlend>
</filter>
</defs>
</svg>